<?xml version="1.0" encoding="utf-8"?>
<!-- Generator: Adobe Illustrator 22.1.0, SVG Export Plug-In . SVG Version: 6.00 Build 0)  -->
<svg version="1.1" id="Warstwa_1" xmlns="http://www.w3.org/2000/svg" xmlns:xlink="http://www.w3.org/1999/xlink" x="0px" y="0px"
	 viewBox="0 0 600 208.9" style="enable-background:new 0 0 600 208.9;" xml:space="preserve">
<style type="text/css">
	.st0{fill:#007AFF;}
</style>
<g transform="translate(0.000000,609.000000) scale(0.100000,-0.100000)">
	<path class="st0" d="M0,5045.4V4000.8h3000h3000v1044.6V6090H3000H0V5045.4z M383.2,5670.1c7.9-6.5,11-13.4,14.4-30.9l4.5-22.6
		h301.5h301.2l4.1,21.6c3.1,15.1,7.2,24,13.7,30.9c9.3,8.9,10.3,9.3,50.4,9.3c40.5,0,41.2,0,51.8-9.9c12.7-11.7,13-16.1,4.1-61.4
		c-11.7-60-39.5-132.4-70.7-185.9c-70-118.4-176-213-324.5-290.6c-22-11.7-50.8-27.4-64.2-35.7c-31.9-19.6-83-57.3-83-61.7
		c0-4.1,228.8-4.1,231.2,0c1,1.7-3.8,7.9-10.6,13.4l-13,10.3l16.5,9.6c8.9,5.5,34.3,20.9,56.3,34.6l39.8,24.7l19.9-17.2
		c100.5-87.1,182.8-230.9,204.1-357.5c5.8-34.3,5.8-36.4,0-44.9c-8.6-13-18.5-15.8-59-15.8c-43.6,0-53.2,3.8-59,23.3
		c-2.4,7.5-4.1,16.8-4.1,20.6c0,19.2,22.3,17.8-305.7,17.8H401.7l-4.1-21.3c-3.1-15.4-7.2-24.4-13.7-31.2
		c-9.3-8.9-10.3-9.3-48.4-9.3c-42.2,0-52.5,3.1-60.7,17.8c-4.5,7.5-4.5,12.7-0.7,37.4c11.7,73.1,48.7,162.6,96.7,234.6
		c43.9,65.5,96.7,120.8,164.3,171.9c21.6,16.5,39.8,30.9,40.5,32.2c0.3,1-7.9,8.2-18.9,15.8c-146.1,99.8-258,267.2-282.7,423
		c-3.8,24.7-3.8,29.8,0.7,37.4c8.2,14.8,18.5,17.8,60.4,17.8C370.5,5678.3,374.3,5677.6,383.2,5670.1z M5167.8,5539.1
		c4.8-2.1,5.5-37,5.5-363.6v-361.6h-42.9h-42.9v361.2c0,199,1,362.6,2.4,363.6C5092.6,5541.8,5160.5,5541.8,5167.8,5539.1z
		 M1806.2,5520.9c43.2-7.2,86.4-22.3,116.6-40.1c23-13.7,55.2-38.8,58-44.9c2.7-6.5-29.5-50.1-39.5-53.9c-9.9-3.4-7.5-4.5-64.8,26.1
		c-46.3,24.7-79.9,31.9-145.8,31.9c-63.1-0.3-82-4.1-128.6-26.4c-24-11.3-34.3-19.2-58.3-43.6c-23.7-23.7-32.2-35.3-43.9-59.3
		c-23.3-48-29.5-76.8-29.5-143.4c-0.3-58,2.1-75.5,15.4-113.2c34-94.3,101.5-149.2,202.7-164c31.2-4.8,43.2-4.8,77.5-1.4
		c44.9,4.5,92.6,16.8,119,30.9l17.2,9.3v75.5v75.5l-58,1c-72.4,1-70.7,0-70.7,41.9c0,24.4,1,30.5,5.5,32.2
		c8.2,3.1,201.4,2.4,206.5-0.7c3.1-2.4,4.1-31.9,3.4-136.5l-1-133.4l-18.9-12.7c-68.6-46.3-189.4-72-287.5-61.4
		c-128.3,14.1-223.7,79.9-275.5,190.4c-49.4,105.7-47,247,6.2,349.2c38.8,74.4,102.2,128,186.3,157.1
		C1656.6,5526.7,1738.9,5532.5,1806.2,5520.9z M4295.4,5520.9c19.9-3.4,47.7-11.3,62.1-17.2c37-15.4,102.2-59.7,102.2-69.6
		c0-1.4-7.9-13.7-17.5-26.8c-23.3-32.2-26.8-32.6-62.8-10.6c-55.9,34.3-91.9,44.9-150.9,44.9c-125.2,0-216.5-69.6-249.7-190.7
		c-6.2-23-7.2-36.4-7.5-87.1c0-70.3,5.1-94,30.9-147.2c13-26.4,21.3-37.7,43.9-60.7c39.5-39.8,77.9-58.3,138.9-66.9
		c27.4-3.8,37.7-3.8,73.4,1c23,2.7,50.8,8.6,61.8,13c17.8,6.9,53.9,29.2,78.6,48.4c13,10.6,23,6.5,43.9-17.5
		c13-15.1,17.2-22.3,15.4-27.1c-3.1-10.3-51.5-47.3-81.3-62.4c-97.8-49.4-231.6-48.4-331.4,1.7c-88.9,44.6-153,141-168.4,252.5
		c-8.9,64.8-7.9,103.9,5.1,162.3c30.2,138.9,134.8,237,278.6,261.4C4200.3,5528.8,4254.2,5528.4,4295.4,5520.9z M2356.8,5316.8
		c70.7-11.3,117.3-44.9,146.8-105c16.8-34.3,24.7-68.6,24.7-108.1c0-21.6-1.4-30.2-5.5-34c-4.8-4.8-25.4-5.5-177-5.5h-171.9
		l2.4-24.4c5.8-62.8,28.5-108.4,69-138.6c26.4-19.6,83-30.2,122.5-22.6c25.4,4.5,60.7,18.5,85.8,33.6c26.4,15.8,34.3,14.4,53.2-8.6
		c17.5-21.3,16.8-24.4-8.6-43.2c-63.1-46.3-157.5-63.8-237.4-44.6c-70,17.2-129.7,72.7-154.7,143.1c-16.8,48.4-22,125.2-11.7,175.3
		c20.2,97.8,89.2,166,183.5,182.2C2312.2,5322.2,2322.5,5322.2,2356.8,5316.8z M2940.7,5313c11-2.7,26.4-8.2,34.3-12.3
		c21.6-11,48.4-39.8,60.4-65.2c20.6-43.2,21.3-48.7,21.3-243.9v-177.7h-42.5h-42.9l-1,177.7c-1,176.7-1,177.4-9.3,197.3
		c-14.4,36.4-34.6,52.8-75.1,61.1c-43.9,9.3-103.3-13.4-141.7-54.2l-16.8-17.8V4996v-182.2h-42.9h-42.9v250.4v250.4h28.8
		c39.5,0,45.3-4.8,49.7-42.2c1.7-14.8,3.8-27.4,4.5-28.5c0.7-0.7,6.2,3.1,12,8.6C2803.8,5314,2864.2,5331.5,2940.7,5313z
		 M3447,5312.6c55.9-14.8,97.8-48.4,122.5-98.8c17.8-36,25.7-69.6,25.7-109.1c0-44.3,17.8-40.5-182.8-40.5h-171.2l2.4-26.4
		c3.1-32.6,15.1-72.7,28.5-94c47.7-75.1,152.3-89.5,244.3-34c29.5,17.8,37.4,17.8,53.2-0.7c21.3-24.7,21.3-25.7,4.8-40.8
		c-29.8-27.4-76.8-47.3-134.5-56.6c-84-13.4-160.5,8.6-213.4,62.1c-44.9,45.3-66.2,101.2-69.3,182.2
		c-3.4,90.2,17.8,150.6,71.7,202.7C3283,5311.6,3369.1,5332.9,3447,5312.6z M4808.2,5317.8c48.4-8.9,92.6-42.2,113.9-85.4
		c19.9-40.1,21.3-57.6,21.3-242.9c0-91.9-1.4-169.1-3.1-171.9c-4.5-6.9-49.7-3.4-58.3,4.5c-3.8,3.4-8.9,16.8-12.4,31.6
		c-3.1,14.1-6.5,25.4-7.5,25.4c-1,0-10.6-6.9-20.9-15.4c-35.7-29.5-70.3-45.6-114.2-52.8c-77.5-13-138.9,13.4-166.4,71
		c-7.9,16.8-9.3,24-9.6,52.1c-0.3,29.2,0.7,34.6,9.3,52.1c29.8,61.1,109.1,95.7,242.5,106.3l55.6,4.1l-1.7,38.1
		c-1,23-4.1,44.9-7.5,55.9c-24.4,71.7-116.3,84-197.3,26.8c-23-16.5-36-20.2-48.4-14.1c-9.6,5.1-27.1,30.5-27.1,39.8
		c0,11,61.8,51.1,97.8,63.1C4715.3,5320.2,4769.5,5325,4808.2,5317.8z M5573.2,5317.8c40.5-7.2,79.6-25,105.3-48l14.4-12.7
		l-13.4-19.6c-13.7-19.6-23.3-26.4-32.6-23c-2.7,1-13.4,6.9-24,13.4c-51.8,31.2-117,33.6-164.3,5.8c-49.4-29.2-73.4-85.1-73.1-172.2
		c0.7-112.5,47.7-177.4,134.5-184.9c36.7-3.1,70,5.8,102.9,28.5c33.6,22.6,42.9,23.7,56.6,5.8c16.8-21.6,18.5-25.4,12.7-34
		c-5.8-8.9-35.3-31.9-52.1-40.8c-29.8-15.4-88.2-28.8-124.5-29.2c-46,0-108.1,22.6-141,51.8c-58.3,51.1-89.2,145.5-78.6,239.1
		c5.5,47.7,11.3,68.3,28.5,103.6c31.2,63.1,94,107.7,166,117.7C5511.8,5321.9,5553.3,5321.6,5573.2,5317.8z M1752.7,4577.5
		c9.9-7.2,11.7-10.6,7.2-17.5c-2.7-4.1-4.8-4.1-15.4,1c-15.4,7.5-35.3,7.5-43.6,0c-3.4-3.1-6.2-10.3-6.2-16.8
		c0-13.4,5.5-17.8,35.7-29.2c28.5-10.3,36.4-19.2,36.4-39.8c0-31.9-20.6-50.4-54.9-50.4c-18.5,0.3-36,6.5-43.9,16.1
		c-3.1,3.4-2.7,6.2,1,11.3c4.8,6.5,5.1,6.5,18.5-1c27.8-15.8,58.7-5.8,58.7,18.9c0,12.7-7.9,19.6-31.6,27.8
		c-27.4,9.3-32.9,13-39.1,25c-11.7,22.3,2.4,53.2,27.8,61.1C1717.3,4588.1,1742.7,4585,1752.7,4577.5z M2695.7,4584.3
		c6.2-3.8,3.8-17.5-3.4-22.3c-12-7.5-25.4,9.3-16.5,20.2C2680.6,4588.1,2688.9,4588.8,2695.7,4584.3z M2751.3,4539.4
		c0-26.4,1.4-48,2.7-48c1.4,0,12.7,9.9,24.7,22.3c18.5,18.9,24,22.3,34,22.3h11.7l-22.6-23.7c-12.7-13-23-24.7-23-26.1
		c0-1.4,9.9-14.8,22.3-29.5c12.4-14.8,22.3-27.8,22.3-28.8c0-1-5.1-1.7-11-1.4c-9.6,0-14.4,3.8-31.6,24c-11,13-22.3,23.7-24.7,23.7
		c-3.8,0-4.8-6.2-4.8-24v-24H2741h-10.3v80.6v80.6h10.3h10.3V4539.4z M3055.9,4582.3c13-5.5,27.1-22.6,23-29.2
		c-4.1-6.9-17.8-3.8-21.6,5.1c-7.9,17.2-35.7,12.7-40.5-6.5c-2.7-12,5.1-24.7,34.3-53.2c27.8-27.4,27.8-27.4,32.6-2.4
		c1.7,8.6,4.1,10.6,10.6,10.6c7.5,0,8.6-1.4,7.5-12c-0.7-6.5-3.4-16.1-6.2-21.6c-6.5-12.4-4.1-19.2,11.7-33.6l12.7-11.7l-11.3-1
		c-7.9-0.7-14.1,1.4-21.6,7.5l-10.3,8.9l-15.8-9.3c-22.3-13-50.1-13-66.9-0.3c-25.4,19.2-25.7,46.3-1.4,69.6l14.4,13.7l-6.2,12
		c-3.4,6.5-6.2,15.1-6.2,19.2c0,11.7,14.8,30.2,27.4,34.6C3038.1,4588.5,3040.5,4588.5,3055.9,4582.3z M3720.1,4579.9
		c8.2-13.4-15.1-27.1-25.4-14.8c-7.2,8.6,1,23,12.7,21.6C3712.2,4586.1,3718,4583,3720.1,4579.9z M3828.5,4585
		c0-6.5-29.5-31.9-37-31.9h-8.2l7.9,13c4.1,6.9,9.9,14.8,12.7,17.2C3809.6,4587.8,3828.5,4589.1,3828.5,4585z M3893.7,4539.4
		c0-34.6,1-48,4.1-48c2.1,0,13.4,10.3,24.7,22.6c18.5,20.2,22.3,22.6,31.9,21.3l11.3-1l-14.4-15.4c-7.9-8.6-17.8-19.6-22.3-24.4
		l-7.9-8.6l24-29.8l24-29.8h-11.7c-10.6,0-14.4,2.7-31.9,24c-26.4,31.6-31.9,31.6-31.9,0v-24h-10.3h-10.3v80.6v80.6h10.3h10.3
		V4539.4z M4387.6,4539.4c0-34.6,1-48,4.1-48c2.1,0,13.4,10.3,24.7,22.6c18.5,20.2,22.3,22.6,31.9,21.3l11.3-1l-14.4-15.4
		c-7.9-8.6-17.8-19.6-22.3-24.4l-7.9-8.6l24-29.8l24-29.8h-11.7c-10.6,0-14.4,2.7-31.9,24c-26.4,31.6-31.9,31.6-31.9,0v-24h-10.3
		h-10.3v80.6v80.6h10.3h10.3V4539.4z M4504.3,4582.3c8.9-11-4.5-27.8-16.1-20.2c-12,7.5-7.9,25.4,5.8,25.4
		C4497.4,4587.4,4501.9,4585,4504.3,4582.3z M2524.9,4533.6c15.4-28.1,29.2-52.1,30.9-53.5c1.4-1.7,14.4,19.2,29.2,46.3
		c14.4,27.1,28.1,51.1,29.8,53.5c2.1,2.1,7.9,4.1,13.4,4.1h9.9v-78.9v-78.9h-10.3h-10.6l1,59.7c0.7,32.9,0.3,59-0.7,58
		c-1-0.7-13.4-22.6-27.4-48.4c-19.9-36-27.4-47-32.6-47s-13.7,12-35,49.7L2494,4548v-60.7v-61.1h-10.3h-10.3v78.9v78.9h11.7
		C2496.7,4584,2497.4,4583.3,2524.9,4533.6z M3241.9,4524.3c0-34.3-1.7-64.2-3.8-69.6c-8.2-22-32.6-35-56.9-30.2
		c-9.3,1.7-11.3,3.8-11.3,10.3c0,7.9,1.4,8.6,16.8,8.6c14.4,0,18.2,1.4,24,8.9c6.5,8.6,7.2,13.7,7.2,70.3v61.4h12h12V4524.3z
		 M3637.7,4579.2c15.8-6.5,22.6-17.8,22.6-36.7c0-14.8-1.4-17.5-12.7-26.8c-9.6-7.9-11.3-10.6-6.9-10.6c3.4,0,11-4.5,16.5-9.9
		c18.2-18.2,11.7-47-13.4-61.4c-11.7-6.5-18.5-7.5-51.8-7.5H3554v78.9v78.9h36C3613.4,4584,3630.5,4582.3,3637.7,4579.2z
		 M2077.2,4527.7l6.9-8.6l7.2,8.2c16.5,18.5,52.1,12,61.7-10.6c3.1-7.5,4.8-25,4.8-51.1v-39.5h-12h-12v42.5c0,40.5-0.3,43.2-7.5,48
		c-10.3,7.2-18.5,6.9-26.8-1.4c-6.2-6.2-6.9-11.3-6.9-48v-41.2h-12h-12v41.9c0,34-1,42.9-5.8,48c-7.9,8.6-20.2,7.9-30.2-2.4
		c-8.2-7.9-8.6-10.3-8.6-48v-39.5h-10.3h-10.3v54.9v54.9h8.6c4.8,0,9.6-2.1,10.6-4.8c1.4-3.8,4.1-3.4,14.4,2.1
		C2052.8,4541.1,2067.6,4539.1,2077.2,4527.7z M2261.1,4530.1c12-7.2,23.7-30.9,23.7-48.4c0-18.2-13-41.9-27.4-49.4
		c-8.9-5.1-17.2-6.2-32.2-5.1c-18.5,1-21.3,2.4-32.9,14.8c-36,38.8-7.2,101.9,43.9,95.7C2244.3,4537,2255.6,4533.2,2261.1,4530.1z
		 M2386.3,4531.2c11-7.5,15.1-25.4,15.1-67.9v-37h-9.9h-9.9l-1,40.8c-1,34.3-2.4,41.9-7.9,48c-7.2,7.9-19.2,9.3-30.5,3.1
		c-14.1-7.5-15.8-13.4-16.1-53.2v-38.8h-10.3h-10.3v54.9v54.9h8.9c6.2,0,9.6-2.1,10.6-6.9c1.7-6.5,2.4-6.5,7.5-2.1
		C2346.8,4540.1,2369.8,4541.8,2386.3,4531.2z M2898.8,4533.2c14.1-6.9,16.1-16.5,3.4-15.4c-4.8,0.3-13.4,1.7-18.9,2.7
		c-7.9,1.7-12.7,0.3-18.9-4.8c-12-9.6-6.5-16.8,20.6-27.4c24.7-9.9,33.3-20.6,29.5-36c-3.4-13-17.2-25-32.2-27.8
		c-23.7-3.8-53.5,12-42.9,22.6c3.1,3.1,6.9,2.7,15.8-1.7c15.1-6.9,22.6-6.9,32.6,0c8.2,5.8,9.9,15.8,3.4,20.9
		c-2.4,2.1-12,6.2-21.3,9.3c-9.6,3.1-20.6,8.9-25,13c-14.4,13.7-7.5,36.4,14.1,46C2873.4,4540.8,2884.4,4540.4,2898.8,4533.2z
		 M3336.2,4534.6c18.5-7.9,22.3-19.6,22.3-67.2c0-39.5-0.3-41.2-7.2-41.2c-4.1,0-7.9,2.7-8.9,6.5c-1.7,6.2-2.4,6.2-18.2-2.1
		c-13-6.5-19.6-8.2-28.8-6.5c-13.7,2.7-26.1,16.1-26.1,28.5c0,17.8,28.5,35.3,57.6,35.3c9.9,0,11,1,11,10.3c0,5.8-3.1,13.4-7.2,17.5
		c-7.9,7.9-16.5,7.5-36.4-0.7c-8.9-3.4-12-3.8-15.4-0.3c-5.5,5.5,2.1,13.4,19.9,19.6C3316,4540.4,3321.8,4540.4,3336.2,4534.6z
		 M3460,4534.3c17.5-7.2,22-20.9,22-68.6v-39.5h-10.3h-10.3v38.1c0,36-2.7,49.4-11.7,55.2c-7.2,4.8-21.6,2.7-30.9-4.5
		c-8.6-6.9-8.9-7.9-8.9-48v-40.8h-12h-12v54.9v54.9h10.3c8.2,0,10.3-1.4,10.3-7.5c0-6.9,0.3-6.9,6.5-1.4c6.2,5.5,20.9,11.3,30.5,12
		C3446,4539.4,3453.2,4537,3460,4534.3z M3830.5,4531.2c11-7.5,15.1-25.4,15.1-68.3v-37l-10.3,1l-10.6,1l-0.7,40.5
		c-0.7,38.1-1,41.2-8.9,47.3c-11,8.9-22,8.2-34.3-2.4l-10.6-8.9v-39.1v-39.1h-10.3h-10.3v54.9v54.9h8.9c6.2,0,9.6-2.1,10.6-6.9
		c1.7-6.5,2.4-6.5,7.5-2.1C3791.1,4540.1,3814.1,4541.8,3830.5,4531.2z M4056.3,4529.8c22-13,30.2-54.9,15.8-78.9
		c-21.3-34.6-75.5-32.9-93.3,2.7c-12,23.7-5.1,59.7,14.1,74.4C4008.2,4540.1,4037.4,4540.8,4056.3,4529.8z M4325.9,4533.2
		c14.1-6.9,16.1-16.5,3.4-15.4c-4.8,0.3-13.4,1.7-18.9,2.7c-7.9,1.7-12.7,0.3-18.9-4.8c-12-9.6-6.5-16.8,20.6-27.4
		c24.7-9.9,33.3-20.6,29.5-36c-3.4-13-17.2-25-32.2-27.8c-23.7-3.8-53.5,12-42.9,22.6c3.1,3.1,6.9,2.7,15.8-1.7
		c15.1-6.9,22.6-6.9,32.6,0c8.2,5.8,9.9,15.8,3.4,20.9c-2.4,2.1-12,6.2-21.3,9.3c-9.6,3.1-20.6,8.9-25,13
		c-14.4,13.7-7.5,36.4,14.1,46C4300.5,4540.8,4311.5,4540.4,4325.9,4533.2z M1869.6,4529.5c0-3.4-13-23.3-29.2-44.3
		c-16.1-20.9-29.2-39.1-29.2-40.1s12.3-1.7,27.4-1.7c27.1,0,27.4,0,27.4-8.6v-8.9l-41.9,1c-26.1,0.7-42.2,2.4-42.9,4.8
		c-0.7,2.1,12.7,22,29.8,44.6l31.2,40.8l-28.5,1.7c-26.4,1.7-28.5,2.4-29.5,9.6c-1,7.5-0.7,7.5,41.9,7.5
		C1866.2,4536,1869.6,4535.6,1869.6,4529.5z M1900.5,4535.3c0-0.7,7.5-18.5,16.8-39.5l16.5-38.8l12.3,30.2
		c6.9,16.5,14.1,34,15.8,39.5c2.7,7.2,5.8,9.3,14.1,9.3c13,0,14.8,6.2-22-78.9c-28.1-64.5-29.5-66.9-39.8-67.9
		c-5.5-0.7-10.3-0.3-10.3,1c0,1,3.8,9.6,8.6,18.9c4.8,9.3,8.6,18.9,8.6,21.6c0,2.4-9.3,26.1-20.6,52.1
		c-11.3,26.1-20.6,48.7-20.6,50.4C1879.9,4535.6,1900.5,4537.7,1900.5,4535.3z M2696.4,4481.1v-54.9h-10.3h-10.3v54.9v54.9h10.3
		h10.3V4481.1z M3718.7,4481.1v-54.9h-12h-12v54.9v54.9h12h12V4481.1z M4122.8,4493.4l12.4-41.2l13.7,41.9
		c13.4,40.1,14.4,41.9,23.3,41.9c8.9,0,9.9-1.7,22-39.5c7.2-22,13.7-38.4,15.1-37c1,1.4,7.2,19.2,13.7,39.8
		c11.3,35.3,12,36.7,21.3,36.7c5.1,0,9.6-1,9.6-2.4c0-1.7-7.9-26.4-17.5-55.2l-17.5-52.5l-10.3,1c-9.6,1-10.6,2.7-23,40.5
		c-15.1,45.3-13,45.6-30.9-10.3c-8.9-27.8-9.9-29.2-19.9-30.2l-10.6-1l-17.5,52.8c-9.6,29.2-17.5,54.2-17.5,55.6c0,1,4.8,1.7,10.6,1
		C4110.5,4534.3,4110.8,4533.6,4122.8,4493.4z M4504.3,4481.1v-54.9H4494h-10.3v54.9v54.9h10.3h10.3V4481.1z"/>
	<path class="st0" d="M452.8,5490.3c0-1.7,8.2-15.1,18.2-30.2l18.5-27.1h213.7H917l18.5,27.1c9.9,15.1,18.2,28.5,18.2,30.2
		c0,1.4-112.5,2.7-250.4,2.7C565.7,5493.1,452.8,5491.7,452.8,5490.3z"/>
	<path class="st0" d="M586.6,5335.6c0-7.9,104.6-79.2,116.3-79.2c12.3,0,112.5,67.2,116.3,78.2c1,3.1-24.7,4.1-115.6,4.1
		C637,5338.7,586.6,5337.3,586.6,5335.6z"/>
	<path class="st0" d="M475.8,4916.1c-14.8-21.3-23-34.6-23-38.4c0-1,112.9-2.1,250.4-2.1c137.9,0,250.4,1,250.4,2.1
		c0,2.1-27.8,44.3-35.3,53.9c-4.5,5.5-19.2,5.8-216.1,5.8h-211L475.8,4916.1z"/>
	<path class="st0" d="M2273.8,5246.4c-44.3-14.4-72-43.9-88.2-93c-12.7-38.1-26.8-34.3,128.3-34.3h135.5v13
		c-0.3,46-28.5,90.2-69.6,109.1C2351.6,5254,2303.9,5256.4,2273.8,5246.4z"/>
	<path class="st0" d="M3343.1,5246.8c-39.5-13.4-61.7-32.2-79.2-66.6c-8.6-16.8-18.5-47-18.5-56.6c0-3.4,29.5-4.5,135.5-4.5h135.5
		v13c-0.3,46-28.5,90.2-69.6,109.1C3419.6,5253.6,3370.5,5256.4,3343.1,5246.8z"/>
	<path class="st0" d="M4785.6,5036.5c-100.9-11.7-152-42.9-152-93.3c0-18.5,7.5-40.5,17.5-51.8c19.9-22.3,69.3-29.2,114.2-15.8
		c25.4,7.5,69,34.6,83.4,51.8c8.6,10.3,8.9,11.7,8.9,61.8v51.1l-23-0.3C4821.6,5039.6,4799.7,5038.2,4785.6,5036.5z"/>
	<path class="st0" d="M3005.5,4492.7c-10.3-13-10.6-32.6-1.4-43.2c11-12,36.4-11.7,52.5,0.7l8.6,6.5l-22.3,22.6
		c-12,12.4-24,22.3-26.1,22.3C3014.4,4501.7,3009.3,4497.5,3005.5,4492.7z"/>
	<path class="st0" d="M3578,4541.1v-25.7h22.3c19.6,0,23.7,1,31.6,8.9c6.9,6.9,8.2,10.6,6.5,19.6c-3.8,18.5-10.6,23-37,23H3578
		V4541.1z"/>
	<path class="st0" d="M3578,4471.1v-27.8h22.6c32.9,0,42.5,6.2,42.5,27.8c0,18.9-9.3,25-39.8,26.4l-25.4,1.4V4471.1z"/>
	<path class="st0" d="M2211,4514.4c-15.4-13-16.1-49.7-1.7-64.2c9.9-9.9,32.2-9.3,42.9,1.7c16.1,15.8,9.3,63.1-9.9,68.3
		C2228.8,4524,2219.9,4522.2,2211,4514.4z"/>
	<path class="st0" d="M3311.5,4470.8c-20.6-4.8-26.8-14.8-16.1-25.4c6.9-6.9,16.1-6.9,30.9,0c9.9,4.8,11.7,7.2,11.7,17.2
		C3337.9,4475.2,3334.5,4476.3,3311.5,4470.8z"/>
	<path class="st0" d="M4010.3,4517.8c-10.6-5.1-18.9-28.8-15.8-44.9c3.8-19.6,14.1-29.5,30.9-29.5c19.6,0,29.8,10.6,32.2,33.6
		C4060.7,4510.9,4037,4531.5,4010.3,4517.8z"/>
</g>
</svg>
