<?xml version="1.0" standalone="no"?>
<!DOCTYPE svg PUBLIC "-//W3C//DTD SVG 20010904//EN"
 "http://www.w3.org/TR/2001/REC-SVG-20010904/DTD/svg10.dtd">
<svg version="1.0" xmlns="http://www.w3.org/2000/svg"
 width="1749.000000pt" height="609.000000pt" viewBox="0 0 1749.000000 609.000000"
 preserveAspectRatio="xMidYMid meet">

<g transform="translate(0.000000,609.000000) scale(0.100000,-0.100000)"
fill="#007aff" stroke="none">
<path d="M0 3045 l0 -3045 8745 0 8745 0 0 3045 0 3045 -8745 0 -8745 0 0
-3045z m1117 1821 c23 -19 32 -39 42 -90 l13 -66 879 0 878 0 12 63 c9 44 21
70 40 90 27 26 30 27 147 27 118 0 120 0 151 -29 37 -34 38 -47 12 -179 -34
-175 -115 -386 -206 -542 -204 -345 -513 -621 -946 -847 -64 -34 -148 -80
-187 -104 -93 -57 -242 -167 -242 -180 0 -12 667 -12 674 0 3 5 -11 23 -31 39
l-38 30 48 28 c26 16 100 61 164 101 l116 72 58 -50 c293 -254 533 -673 595
-1042 17 -100 17 -106 0 -131 -25 -38 -54 -46 -172 -46 -127 0 -155 11 -172
68 -7 22 -12 49 -12 60 0 56 65 52 -891 52 l-878 0 -12 -62 c-9 -45 -21 -71
-40 -91 -27 -26 -30 -27 -141 -27 -123 0 -153 9 -177 52 -13 22 -13 37 -2 109
34 213 142 474 282 684 128 191 282 352 479 501 63 48 116 90 118 94 1 3 -23
24 -55 46 -426 291 -752 779 -824 1233 -11 72 -11 87 2 109 24 43 54 52 176
52 103 0 114 -2 140 -24z m13947 -382 c14 -6 16 -108 16 -1060 l0 -1054 -125
0 -125 0 0 1053 c0 580 3 1057 7 1060 8 9 206 9 227 1z m-9799 -53 c126 -21
252 -65 340 -117 67 -40 161 -113 169 -131 8 -19 -86 -146 -115 -157 -29 -10
-22 -13 -189 76 -135 72 -233 93 -425 93 -184 -1 -239 -12 -375 -77 -70 -33
-100 -56 -170 -127 -69 -69 -94 -103 -128 -173 -68 -140 -86 -224 -86 -418 -1
-169 6 -220 45 -330 99 -275 296 -435 591 -478 91 -14 126 -14 226 -4 131 13
270 49 347 90 l50 27 0 220 0 220 -169 3 c-211 3 -206 0 -206 122 0 71 3 89
16 94 24 9 587 7 602 -2 9 -7 12 -93 10 -398 l-3 -389 -55 -37 c-200 -135
-552 -210 -838 -179 -374 41 -652 233 -803 555 -144 308 -137 720 18 1018 113
217 298 373 543 458 169 58 409 75 605 41z m7256 0 c58 -10 139 -33 181 -50
108 -45 298 -174 298 -203 0 -4 -23 -40 -51 -78 -68 -94 -78 -95 -183 -31
-163 100 -268 131 -440 131 -365 0 -631 -203 -728 -556 -18 -67 -21 -106 -22
-254 0 -205 15 -274 90 -429 38 -77 62 -110 128 -177 115 -116 227 -170 405
-195 80 -11 110 -11 214 3 67 8 148 25 180 38 52 20 157 85 229 141 38 31 67
19 128 -51 38 -44 50 -65 45 -79 -9 -30 -150 -138 -237 -182 -285 -144 -675
-141 -966 5 -259 130 -446 411 -491 736 -26 189 -23 303 15 473 88 405 393
691 812 762 116 19 273 18 393 -4z m-5651 -595 c206 -33 342 -131 428 -306 49
-100 72 -200 72 -315 0 -63 -4 -88 -16 -99 -14 -14 -74 -16 -516 -16 l-501 0
7 -71 c17 -183 83 -316 201 -404 77 -57 242 -88 357 -66 74 13 177 54 250 98
77 46 100 42 155 -25 51 -62 49 -71 -25 -126 -184 -135 -459 -186 -692 -130
-204 50 -378 212 -451 417 -49 141 -64 365 -34 511 59 285 260 484 535 531
100 17 130 17 230 1z m1702 -11 c32 -8 77 -24 100 -36 63 -32 141 -116 176
-190 60 -126 62 -142 62 -711 l0 -518 -124 0 -125 0 -3 518 c-3 515 -3 517
-27 575 -42 106 -101 154 -219 178 -128 27 -301 -39 -413 -158 l-49 -52 0
-530 0 -531 -125 0 -125 0 0 730 0 730 84 0 c115 0 132 -14 145 -123 5 -43 11
-80 13 -83 2 -2 18 9 35 25 196 179 372 230 595 176z m1476 -1 c163 -43 285
-141 357 -288 52 -105 75 -203 75 -318 0 -129 52 -118 -533 -118 l-499 0 7
-77 c9 -95 44 -212 83 -274 139 -219 444 -261 712 -99 86 52 109 52 155 -2 62
-72 62 -75 14 -119 -87 -80 -224 -138 -392 -165 -245 -39 -468 25 -622 181
-131 132 -193 295 -202 531 -10 263 52 439 209 591 158 154 409 216 636 157z
m3968 15 c141 -26 270 -123 332 -249 58 -117 62 -168 62 -708 0 -268 -4 -493
-9 -501 -13 -20 -145 -10 -170 13 -11 10 -26 49 -36 92 -9 41 -19 74 -22 74
-3 0 -31 -20 -61 -45 -104 -86 -205 -133 -333 -154 -226 -38 -405 39 -485 207
-23 49 -27 70 -28 152 -1 85 2 101 27 152 87 178 318 279 707 310 l162 12 -5
111 c-3 67 -12 131 -22 163 -71 209 -339 245 -575 78 -67 -48 -105 -59 -141
-41 -28 15 -79 89 -79 116 0 32 180 149 285 184 120 41 278 55 391 34z m2230
0 c118 -21 232 -73 307 -140 l42 -37 -39 -57 c-40 -57 -68 -77 -95 -67 -8 3
-39 20 -70 39 -151 91 -341 98 -479 17 -144 -85 -214 -248 -213 -502 2 -328
139 -517 392 -539 107 -9 204 17 300 83 98 66 125 69 165 17 49 -63 54 -74 37
-99 -17 -26 -103 -93 -152 -119 -87 -45 -257 -84 -363 -85 -134 0 -315 66
-411 151 -170 149 -260 424 -229 697 16 139 33 199 83 302 91 184 274 314 484
343 62 8 183 7 241 -4z m-11137 -2158 c29 -21 34 -31 21 -51 -8 -12 -14 -12
-45 3 -45 22 -103 22 -127 0 -10 -9 -18 -30 -18 -49 0 -39 16 -52 104 -85 83
-30 106 -56 106 -116 0 -93 -60 -147 -160 -147 -54 1 -105 19 -128 47 -9 10
-8 18 3 33 14 19 15 19 54 -3 81 -46 171 -17 171 55 0 37 -23 57 -92 81 -80
27 -96 38 -114 73 -34 65 7 155 81 178 41 12 115 3 144 -19z m2749 20 c18 -11
11 -51 -10 -65 -35 -22 -74 27 -48 59 14 17 38 19 58 6z m162 -131 c0 -77 4
-140 8 -140 4 0 37 29 72 65 54 55 70 65 99 65 l34 0 -66 -69 c-37 -38 -67
-72 -67 -76 0 -4 29 -43 65 -86 36 -43 65 -81 65 -84 0 -3 -15 -5 -32 -4 -28
0 -42 11 -92 70 -32 38 -65 69 -72 69 -11 0 -14 -18 -14 -70 l0 -70 -30 0 -30
0 0 235 0 235 30 0 30 0 0 -140z m888 125 c38 -16 79 -66 67 -85 -12 -20 -52
-11 -63 15 -23 50 -104 37 -118 -19 -8 -35 15 -72 100 -155 81 -80 81 -80 95
-7 5 25 12 31 31 31 22 0 25 -4 22 -35 -2 -19 -10 -47 -18 -63 -19 -36 -12
-56 34 -98 l37 -34 -33 -3 c-23 -2 -41 4 -63 22 l-30 26 -46 -27 c-65 -38
-146 -38 -195 -1 -74 56 -75 135 -4 203 l42 40 -18 35 c-10 19 -18 44 -18 56
0 34 43 88 80 101 46 16 53 16 98 -2z m1936 -7 c24 -39 -44 -79 -74 -43 -21
25 3 67 37 63 14 -2 31 -11 37 -20z m316 15 c0 -19 -86 -93 -108 -93 l-24 0
23 38 c12 20 29 43 37 50 17 13 72 17 72 5z m190 -133 c0 -101 3 -140 12 -140
6 0 39 30 72 66 54 59 65 66 93 62 l33 -3 -42 -45 c-23 -25 -52 -57 -65 -71
l-23 -25 70 -87 70 -87 -34 0 c-31 0 -42 8 -93 70 -77 92 -93 92 -93 0 l0 -70
-30 0 -30 0 0 235 0 235 30 0 30 0 0 -140z m1440 0 c0 -101 3 -140 12 -140 6
0 39 30 72 66 54 59 65 66 93 62 l33 -3 -42 -45 c-23 -25 -52 -57 -65 -71
l-23 -25 70 -87 70 -87 -34 0 c-31 0 -42 8 -93 70 -77 92 -93 92 -93 0 l0 -70
-30 0 -30 0 0 235 0 235 30 0 30 0 0 -140z m340 125 c26 -32 -13 -81 -47 -59
-35 22 -23 74 17 74 10 0 23 -7 30 -15z m-5770 -142 c45 -82 85 -152 90 -156
4 -5 42 56 85 135 42 79 82 149 87 156 6 6 23 12 39 12 l29 0 0 -230 0 -230
-30 0 -31 0 3 174 c2 96 1 172 -2 169 -3 -2 -39 -66 -80 -141 -58 -105 -80
-137 -95 -137 -15 0 -40 35 -102 145 l-83 145 0 -177 0 -178 -30 0 -30 0 0
230 0 230 34 0 c34 0 36 -2 116 -147z m2090 -27 c0 -100 -5 -187 -11 -203 -24
-64 -95 -102 -166 -88 -27 5 -33 11 -33 30 0 23 4 25 49 25 42 0 53 4 70 26
19 25 21 40 21 205 l0 179 35 0 35 0 0 -174z m1154 160 c46 -19 66 -52 66
-107 0 -43 -4 -51 -37 -78 -28 -23 -33 -31 -20 -31 10 0 32 -13 48 -29 53 -53
34 -137 -39 -179 -34 -19 -54 -22 -151 -22 l-111 0 0 230 0 230 105 0 c68 0
118 -5 139 -14z m-4549 -150 l20 -25 21 24 c48 54 152 35 180 -31 9 -22 14
-73 14 -149 l0 -115 -35 0 -35 0 0 124 c0 118 -1 126 -22 140 -30 21 -54 20
-78 -4 -18 -18 -20 -33 -20 -140 l0 -120 -35 0 -35 0 0 122 c0 99 -3 125 -17
140 -23 25 -59 23 -88 -7 -24 -23 -25 -30 -25 -140 l0 -115 -30 0 -30 0 0 160
0 160 25 0 c14 0 28 -6 31 -14 4 -11 12 -10 42 6 46 23 89 17 117 -16z m536 7
c35 -21 69 -90 69 -141 0 -53 -38 -122 -80 -144 -26 -15 -50 -18 -94 -15 -54
3 -62 7 -96 43 -105 113 -21 297 128 279 24 -2 57 -13 73 -22z m365 3 c32 -22
44 -74 44 -198 l0 -108 -29 0 -29 0 -3 119 c-3 100 -7 122 -23 140 -21 23 -56
27 -89 9 -41 -22 -46 -39 -47 -155 l0 -113 -30 0 -30 0 0 160 0 160 26 0 c18
0 28 -6 31 -20 5 -19 7 -19 22 -6 42 38 109 43 157 12z m1494 6 c41 -20 47
-48 10 -45 -14 1 -39 5 -55 8 -23 5 -37 1 -55 -14 -35 -28 -19 -49 60 -80 72
-29 97 -60 86 -105 -10 -38 -50 -73 -94 -81 -69 -11 -156 35 -125 66 9 9 20 8
46 -5 44 -20 66 -20 95 0 24 17 29 46 10 61 -7 6 -35 18 -62 27 -28 9 -60 26
-73 38 -42 40 -22 106 41 134 42 18 74 17 116 -4z m1275 4 c54 -23 65 -57 65
-196 0 -115 -1 -120 -21 -120 -12 0 -23 8 -26 19 -5 18 -7 18 -53 -6 -38 -19
-57 -24 -84 -19 -40 8 -76 47 -76 83 0 52 83 103 168 103 29 0 32 3 32 30 0
17 -9 39 -21 51 -23 23 -48 22 -106 -2 -26 -10 -35 -11 -45 -1 -16 16 6 39 58
57 50 18 67 18 109 1z m361 -1 c51 -21 64 -61 64 -200 l0 -115 -30 0 -30 0 0
111 c0 105 -8 144 -34 161 -21 14 -63 8 -90 -13 -25 -20 -26 -23 -26 -140 l0
-119 -35 0 -35 0 0 160 0 160 30 0 c24 0 30 -4 30 -22 0 -20 1 -20 19 -4 18
16 61 33 89 35 7 1 28 -6 48 -14z m1080 -9 c32 -22 44 -74 44 -199 l0 -108
-30 3 -31 3 -2 118 c-2 111 -3 120 -26 138 -32 26 -64 24 -100 -7 l-31 -26 0
-114 0 -114 -30 0 -30 0 0 160 0 160 26 0 c18 0 28 -6 31 -20 5 -19 7 -19 22
-6 42 38 109 43 157 12z m658 -4 c64 -38 88 -160 46 -230 -62 -101 -220 -96
-272 8 -35 69 -15 174 41 217 45 35 130 37 185 5z m786 10 c41 -20 47 -48 10
-45 -14 1 -39 5 -55 8 -23 5 -37 1 -55 -14 -35 -28 -19 -49 60 -80 72 -29 97
-60 86 -105 -10 -38 -50 -73 -94 -81 -69 -11 -156 35 -125 66 9 9 20 8 46 -5
44 -20 66 -20 95 0 24 17 29 46 10 61 -7 6 -35 18 -62 27 -28 9 -60 26 -73 38
-42 40 -22 106 41 134 42 18 74 17 116 -4z m-7160 -11 c0 -10 -38 -68 -85
-129 -47 -61 -85 -114 -85 -117 0 -3 36 -5 80 -5 79 0 80 0 80 -25 l0 -26
-122 3 c-76 2 -123 7 -125 14 -2 6 37 64 87 130 l91 119 -83 5 c-77 5 -83 7
-86 28 -3 22 -2 22 122 22 116 0 126 -1 126 -19z m90 17 c0 -2 22 -54 49 -115
l48 -113 36 88 c20 48 41 99 46 115 8 21 17 27 41 27 38 0 43 18 -64 -230 -82
-188 -86 -195 -116 -198 -16 -2 -30 -1 -30 3 0 3 11 28 25 55 14 27 25 55 25
63 0 7 -27 76 -60 152 -33 76 -60 142 -60 147 0 7 60 13 60 6z m2320 -158 l0
-160 -30 0 -30 0 0 160 0 160 30 0 30 0 0 -160z m2980 0 l0 -160 -35 0 -35 0
0 160 0 160 35 0 35 0 0 -160z m1178 36 l36 -120 40 122 c39 117 42 122 68
122 26 0 29 -5 64 -115 21 -64 40 -112 44 -108 3 4 21 56 40 116 33 103 35
107 62 107 15 0 28 -3 28 -7 0 -5 -23 -77 -51 -161 l-51 -153 -30 3 c-28 3
-31 8 -67 118 -44 132 -38 133 -90 -30 -26 -81 -29 -85 -58 -88 l-31 -3 -51
154 c-28 85 -51 158 -51 162 0 3 14 5 31 3 31 -3 32 -5 67 -122z m1112 -36 l0
-160 -30 0 -30 0 0 160 0 160 30 0 30 0 0 -160z"/>
<path d="M1320 4342 c0 -5 24 -44 53 -88 l54 -79 623 0 623 0 54 79 c29 44 53
83 53 88 0 4 -328 8 -730 8 -401 0 -730 -4 -730 -8z"/>
<path d="M1710 3891 c0 -23 305 -231 339 -231 36 0 328 196 339 228 3 9 -72
12 -337 12 -194 0 -341 -4 -341 -9z"/>
<path d="M1387 2668 c-43 -62 -67 -101 -67 -112 0 -3 329 -6 730 -6 402 0 730
3 730 6 0 6 -81 129 -103 157 -13 16 -56 17 -630 17 l-615 0 -45 -62z"/>
<path d="M6628 3631 c-129 -42 -210 -128 -257 -271 -37 -111 -78 -100 374
-100 l395 0 0 38 c-1 134 -83 263 -203 318 -82 37 -221 44 -309 15z"/>
<path d="M9745 3632 c-115 -39 -180 -94 -231 -194 -25 -49 -54 -137 -54 -165
0 -10 86 -13 395 -13 l395 0 0 38 c-1 134 -83 263 -203 318 -79 36 -222 44
-302 16z"/>
<path d="M13950 3019 c-294 -34 -443 -125 -443 -272 0 -54 22 -118 51 -151 58
-65 202 -85 333 -46 74 22 201 101 243 151 25 30 26 34 26 180 l0 149 -67 -1
c-38 -1 -102 -5 -143 -10z"/>
<path d="M8761 1434 c-30 -38 -31 -95 -4 -126 32 -35 106 -34 153 2 l25 19
-65 66 c-35 36 -70 65 -76 65 -7 0 -22 -12 -33 -26z"/>
<path d="M10430 1575 l0 -75 65 0 c57 0 69 3 92 26 20 20 24 31 19 57 -11 54
-31 67 -108 67 l-68 0 0 -75z"/>
<path d="M10430 1371 l0 -81 66 0 c96 0 124 18 124 81 0 55 -27 73 -116 77
l-74 4 0 -81z"/>
<path d="M6445 1497 c-45 -38 -47 -145 -5 -187 29 -29 94 -27 125 5 47 46 27
184 -29 199 -39 11 -65 6 -91 -17z"/>
<path d="M9653 1370 c-60 -14 -78 -43 -47 -74 20 -20 47 -20 90 0 29 14 34 21
34 50 0 37 -10 40 -77 24z"/>
<path d="M11690 1507 c-31 -15 -55 -84 -46 -131 11 -57 41 -86 90 -86 57 0 87
31 94 98 9 99 -60 159 -138 119z"/>
</g>
</svg>
